<svg width="27" height="8" viewBox="0 0 27 8" fill="none" xmlns="http://www.w3.org/2000/svg">
    <path fill-rule="evenodd" clip-rule="evenodd"
        d="M10.184 0.188H17.634L12.361 6.599H17.246V7.815H9.469L14.742 1.398H10.184V0.188ZM23.754 7.577L23.704 7.602L23.654 7.625L23.604 7.649L23.554 7.671L23.503 7.693L23.452 7.713L23.4 7.734L23.348 7.754L23.296 7.773L23.244 7.791L23.192 7.808L23.139 7.824L23.086 7.84L23.033 7.855L22.978 7.869L22.924 7.883L22.871 7.896L22.816 7.908L22.761 7.919L22.706 7.93L22.65 7.94L22.595 7.949L22.539 7.957L22.483 7.965L22.426 7.972L22.37 7.978L22.313 7.984L22.256 7.989L22.198 7.993L22.14 7.996L22.082 7.999L22.024 8.001H21.803L21.699 7.998L21.597 7.992L21.496 7.983L21.395 7.973L21.295 7.961L21.196 7.946L21.098 7.929L21.001 7.909L20.905 7.887L20.809 7.863L20.715 7.837L20.621 7.808L20.528 7.778L20.437 7.744L20.347 7.709L20.257 7.671L20.167 7.631L20.08 7.587L19.993 7.543L19.907 7.496L19.822 7.446L19.738 7.396L19.656 7.342L19.574 7.286L19.494 7.228L19.413 7.168L19.334 7.104L19.256 7.04L19.18 6.973L19.104 6.903L19.029 6.831L18.956 6.758L18.886 6.683L18.817 6.608L18.751 6.532L18.687 6.454L18.625 6.375L18.566 6.295L18.509 6.215L18.454 6.133L18.402 6.051L18.352 5.967L18.303 5.882L18.257 5.796L18.214 5.709L18.174 5.621L18.134 5.532L18.098 5.442L18.064 5.352L18.033 5.259L18.003 5.167L17.977 5.073L17.953 4.978L17.931 4.883L17.911 4.786L17.893 4.688L17.878 4.59L17.865 4.49L17.855 4.39L17.847 4.29L17.841 4.188L17.837 4.084L17.836 3.98L17.837 3.879L17.841 3.778L17.847 3.678L17.855 3.578L17.865 3.479L17.879 3.381L17.894 3.285L17.912 3.189L17.932 3.094L17.955 2.999L17.98 2.906L18.007 2.814L18.037 2.722L18.069 2.632L18.103 2.542L18.14 2.453L18.179 2.365L18.221 2.279L18.265 2.193L18.311 2.108L18.36 2.024L18.41 1.941L18.463 1.859L18.518 1.779L18.576 1.699L18.636 1.619L18.698 1.542L18.763 1.465L18.83 1.389L18.898 1.314L18.97 1.241L19.043 1.168L19.118 1.096L19.194 1.026L19.271 0.96L19.349 0.895L19.429 0.833L19.509 0.773L19.589 0.715L19.672 0.659L19.756 0.605L19.84 0.554L19.925 0.504L20.012 0.458L20.099 0.413L20.188 0.37L20.277 0.33L20.367 0.293L20.458 0.257L20.55 0.224L20.643 0.193L20.738 0.164L20.833 0.138L20.928 0.115L21.025 0.0930004L21.123 0.073L21.222 0.0559998L21.321 0.0410004L21.421 0.0279999L21.523 0.0179996L21.625 0.0109997L21.727 0.00500011L21.831 0.0010004L21.936 0H21.996L22.056 0.00199986L22.116 0.00399971L22.176 0.00699997L22.236 0.0100002L22.295 0.0139999L22.353 0.0200005L22.412 0.0249996L22.47 0.0319996L22.527 0.0389996L22.584 0.0469999L22.641 0.0570002L22.698 0.0670004L22.754 0.0769997L22.81 0.0880003L22.866 0.1L22.921 0.113L22.976 0.127L23.03 0.141L23.084 0.157L23.138 0.173L23.192 0.189L23.244 0.207L23.297 0.226L23.349 0.246L23.402 0.265L23.453 0.285L23.505 0.307L23.556 0.329L23.606 0.353L23.657 0.376L23.707 0.401L23.757 0.427L23.806 0.454L23.855 0.481L23.903 0.509L23.951 0.537L23.999 0.567L24.046 0.597L24.093 0.627L24.139 0.659L24.185 0.692L24.231 0.725L24.277 0.759L24.322 0.794L24.366 0.83L24.41 0.866L24.454 0.903L24.497 0.941L24.54 0.98L24.583 1.02L24.625 1.059L24.667 1.099L24.708 1.141L24.748 1.182V0.189H26.098V7.817H24.748V6.868L24.722 6.893L24.679 6.933L24.636 6.972L24.592 7.01L24.549 7.047L24.505 7.084L24.46 7.12L24.416 7.156L24.37 7.19L24.325 7.225L24.28 7.258L24.234 7.291L24.188 7.323L24.141 7.353L24.094 7.383L24.046 7.413L23.999 7.443L23.951 7.471L23.903 7.499L23.854 7.526L23.805 7.552L23.756 7.577H23.754ZM22.012 1.294H21.964L21.917 1.295L21.87 1.297L21.823 1.299L21.776 1.302L21.73 1.306L21.683 1.311L21.638 1.316L21.592 1.322L21.547 1.328L21.502 1.336L21.457 1.344L21.412 1.353L21.368 1.363L21.324 1.373L21.28 1.383L21.236 1.395L21.192 1.407L21.149 1.42L21.106 1.434L21.064 1.448L21.021 1.463L20.979 1.479L20.937 1.495L20.895 1.512L20.852 1.53L20.811 1.548L20.77 1.567L20.728 1.587L20.688 1.608L20.646 1.629L20.607 1.651L20.527 1.697L20.451 1.745L20.376 1.795L20.303 1.848L20.233 1.902L20.163 1.959L20.097 2.019L20.032 2.079L19.969 2.143L19.909 2.209L19.849 2.278L19.794 2.348L19.739 2.421L19.687 2.497L19.637 2.574L19.587 2.655L19.564 2.695L19.541 2.736L19.519 2.777L19.499 2.818L19.479 2.859L19.459 2.901L19.439 2.942L19.422 2.984L19.405 3.025L19.388 3.067L19.372 3.108L19.357 3.151L19.343 3.193L19.329 3.235L19.316 3.277L19.304 3.319L19.294 3.362L19.282 3.405L19.272 3.447L19.263 3.49L19.255 3.534L19.247 3.577L19.24 3.62L19.234 3.663L19.229 3.707L19.224 3.751L19.22 3.795L19.217 3.839L19.215 3.883L19.213 3.928L19.212 3.972V4.061L19.213 4.106L19.215 4.15L19.217 4.194L19.221 4.237L19.225 4.281L19.23 4.325L19.235 4.369L19.241 4.412L19.249 4.455L19.256 4.499L19.265 4.542L19.273 4.585L19.283 4.627L19.294 4.67L19.306 4.713L19.318 4.756L19.331 4.798L19.345 4.84L19.359 4.882L19.374 4.924L19.391 4.966L19.407 5.009L19.425 5.05L19.443 5.092L19.463 5.134L19.482 5.175L19.502 5.217L19.524 5.258L19.546 5.299L19.569 5.34L19.592 5.38L19.642 5.462L19.694 5.54L19.747 5.616L19.802 5.69L19.859 5.761L19.919 5.83L19.979 5.896L20.043 5.96L20.108 6.023L20.175 6.083L20.245 6.14L20.315 6.196L20.389 6.249L20.465 6.3L20.543 6.35L20.623 6.397L20.663 6.419L20.703 6.44L20.744 6.46L20.785 6.481L20.826 6.501L20.868 6.52L20.909 6.538L20.952 6.555L20.994 6.572L21.036 6.588L21.078 6.603L21.12 6.618L21.163 6.631L21.206 6.644L21.248 6.657L21.292 6.669L21.335 6.679L21.378 6.69L21.422 6.7L21.466 6.708L21.51 6.717L21.555 6.724L21.599 6.73L21.644 6.736L21.689 6.742L21.734 6.746L21.779 6.75L21.825 6.753L21.87 6.755L21.916 6.757L21.962 6.758H22.102L22.148 6.755L22.194 6.753L22.241 6.75L22.286 6.746L22.332 6.741L22.378 6.736L22.424 6.73L22.469 6.723L22.514 6.716L22.559 6.708L22.604 6.698L22.648 6.689L22.693 6.679L22.738 6.669L22.782 6.656L22.826 6.644L22.87 6.631L22.914 6.617L22.958 6.603L23.001 6.588L23.044 6.572L23.088 6.555L23.131 6.538L23.174 6.52L23.217 6.501L23.259 6.481L23.302 6.461L23.345 6.441L23.387 6.419L23.428 6.397L23.512 6.351L23.592 6.302L23.67 6.252L23.745 6.201L23.817 6.148L23.887 6.092L23.955 6.034L24.02 5.974L24.083 5.914L24.143 5.85L24.2 5.785L24.255 5.718L24.308 5.648L24.358 5.578L24.407 5.503L24.453 5.426L24.475 5.388L24.496 5.35L24.517 5.311L24.537 5.272L24.557 5.232L24.575 5.193L24.592 5.153L24.61 5.113L24.626 5.071L24.642 5.031L24.657 4.989L24.671 4.947L24.684 4.905L24.698 4.863L24.71 4.82L24.722 4.778L24.732 4.734L24.742 4.691L24.752 4.647L24.761 4.603L24.769 4.558L24.777 4.513L24.784 4.468L24.79 4.423L24.795 4.377L24.8 4.331L24.803 4.284L24.806 4.237L24.808 4.19L24.81 4.142L24.812 4.094V3.971L24.809 3.898L24.805 3.827L24.8 3.755L24.792 3.685L24.784 3.615L24.774 3.547L24.762 3.479L24.748 3.412L24.733 3.346L24.716 3.281L24.699 3.216L24.679 3.152L24.658 3.089L24.635 3.027L24.611 2.966L24.585 2.906L24.557 2.846L24.528 2.786L24.498 2.728L24.465 2.67L24.432 2.613L24.396 2.557L24.359 2.502L24.321 2.447L24.281 2.393L24.239 2.34L24.195 2.287L24.15 2.235L24.103 2.184L24.055 2.134L24.005 2.084L23.955 2.034L23.903 1.987L23.851 1.941L23.798 1.898L23.744 1.855L23.689 1.814L23.634 1.774L23.578 1.737L23.522 1.701L23.464 1.667L23.407 1.633L23.348 1.602L23.289 1.572L23.229 1.544L23.169 1.517L23.107 1.492L23.045 1.468L22.982 1.446L22.918 1.426L22.853 1.406L22.788 1.388L22.722 1.372L22.655 1.358L22.587 1.344L22.519 1.333L22.449 1.323L22.379 1.314L22.308 1.307L22.236 1.302L22.163 1.297L22.089 1.295H22.015L22.012 1.294ZM5.917 7.575L5.867 7.6L5.817 7.624L5.767 7.647L5.717 7.669L5.665 7.691L5.615 7.712L5.563 7.732L5.512 7.752L5.46 7.771L5.407 7.789L5.355 7.806L5.302 7.823L5.249 7.839L5.195 7.853L5.142 7.868L5.088 7.881L5.033 7.894L4.979 7.906L4.924 7.918L4.869 7.928L4.814 7.938L4.758 7.948L4.702 7.956L4.646 7.963L4.589 7.97L4.532 7.976L4.475 7.982L4.418 7.987L4.361 7.991L4.303 7.995L4.245 7.997L4.187 7.999L4.128 8H3.966L3.862 7.996L3.76 7.99L3.659 7.982L3.559 7.972L3.459 7.959L3.359 7.944L3.262 7.927L3.164 7.907L3.068 7.885L2.973 7.861L2.878 7.835L2.785 7.806L2.692 7.776L2.601 7.742L2.511 7.707L2.421 7.669L2.331 7.629L2.244 7.586L2.157 7.541L2.072 7.494L1.987 7.445L1.903 7.393L1.82 7.339L1.738 7.284L1.658 7.225L1.578 7.165L1.498 7.102L1.421 7.037L1.344 6.97L1.268 6.9L1.194 6.829L1.121 6.755L1.05 6.681L0.982 6.606L0.915 6.529L0.851 6.452L0.789 6.373L0.73 6.293L0.673 6.213L0.618 6.131L0.566 6.048L0.516 5.965L0.468 5.88L0.422 5.794L0.379 5.707L0.338 5.619L0.299 5.53L0.263 5.44L0.229 5.35L0.198 5.258L0.168 5.165L0.142 5.071L0.118 4.976L0.0960002 4.881L0.0760002 4.784L0.0580001 4.687L0.0430002 4.588L0.0300002 4.489L0.0190001 4.389L0.0110002 4.288L0.00500011 4.186L0 4.083V3.98L0.000999928 3.879L0.00500011 3.778L0.0110002 3.678L0.0190001 3.578L0.0289998 3.479L0.0430002 3.381L0.0580001 3.285L0.0760002 3.188L0.0960002 3.093L0.119 2.999L0.144 2.906L0.171 2.813L0.201 2.722L0.233 2.632L0.267 2.542L0.304 2.453L0.344 2.365L0.384 2.278L0.429 2.193L0.475 2.108L0.524 2.024L0.574 1.941L0.627 1.859L0.682 1.779L0.74 1.699L0.8 1.619L0.862 1.542L0.927 1.465L0.993 1.389L1.062 1.314L1.133 1.24L1.207 1.167L1.282 1.097L1.358 1.027L1.435 0.96L1.514 0.896L1.593 0.833L1.673 0.773L1.754 0.715L1.836 0.659L1.92 0.606L2.004 0.555L2.089 0.505L2.175 0.459L2.263 0.414L2.351 0.371L2.441 0.331L2.531 0.294L2.621 0.258L2.714 0.225L2.807 0.194L2.901 0.165L2.996 0.139L3.091 0.116L3.188 0.0939999L3.285 0.0740004L3.384 0.0570002L3.483 0.0419998L3.583 0.0290003L3.684 0.0190001L3.786 0.0120001L3.889 0.00599957L3.993 0.00199986L4.097 0.0010004H4.157L4.217 0.00300026L4.277 0.00500011L4.337 0.00800037L4.397 0.0109997L4.455 0.0150003L4.514 0.0209999L4.572 0.026L4.63 0.033L4.688 0.04L4.745 0.0480003L4.802 0.0579996L4.858 0.0679998L4.915 0.0780001L4.97 0.0889997L5.026 0.101L5.082 0.114L5.136 0.128L5.191 0.142L5.245 0.158L5.299 0.174L5.352 0.19L5.405 0.208L5.458 0.227L5.511 0.245L5.563 0.265L5.614 0.287L5.665 0.307L5.717 0.33L5.767 0.354L5.817 0.377L5.867 0.402L5.917 0.428L5.966 0.455L6.015 0.482L6.063 0.51L6.111 0.538L6.159 0.568L6.206 0.598L6.253 0.628L6.3 0.66L6.346 0.692L6.392 0.726L6.437 0.76L6.482 0.795L6.527 0.83L6.571 0.866L6.615 0.903L6.658 0.941L6.701 0.98L6.743 1.019L6.786 1.059L6.827 1.099L6.868 1.141L6.908 1.182V0.189H8.257V7.816H6.907V6.867L6.882 6.892L6.84 6.932L6.796 6.971L6.753 7.009L6.709 7.046L6.665 7.083L6.621 7.119L6.576 7.154L6.531 7.188L6.485 7.223L6.44 7.256L6.393 7.289L6.347 7.321L6.3 7.352L6.253 7.382L6.206 7.412L6.158 7.442L6.11 7.47L6.062 7.498L6.013 7.524L5.965 7.55L5.915 7.576L5.917 7.575ZM4.175 1.292H4.127L4.08 1.293L4.033 1.295L3.986 1.297L3.939 1.3L3.893 1.304L3.846 1.309L3.801 1.314L3.755 1.32L3.71 1.327L3.665 1.334L3.62 1.342L3.575 1.351L3.53 1.361L3.486 1.371L3.442 1.381L3.399 1.393L3.355 1.405L3.312 1.419L3.269 1.432L3.227 1.446L3.184 1.461L3.141 1.477L3.099 1.493L3.057 1.51L3.015 1.528L2.974 1.546L2.932 1.566L2.892 1.586L2.85 1.606L2.81 1.627L2.77 1.649L2.69 1.695L2.613 1.743L2.539 1.793L2.466 1.846L2.395 1.901L2.326 1.958L2.26 2.017L2.195 2.078L2.133 2.142L2.073 2.207L2.013 2.276L1.958 2.346L1.903 2.419L1.85 2.495L1.8 2.573L1.75 2.653L1.727 2.693L1.705 2.734L1.683 2.775L1.661 2.816L1.641 2.857L1.621 2.899L1.603 2.94L1.584 2.982L1.567 3.024L1.55 3.066L1.534 3.108L1.519 3.15L1.505 3.192L1.491 3.234L1.478 3.276L1.466 3.319L1.455 3.361L1.445 3.404L1.434 3.447L1.424 3.49L1.416 3.532L1.409 3.576L1.401 3.619L1.395 3.662L1.39 3.706L1.385 3.75L1.381 3.794L1.377 3.838L1.375 3.882L1.373 3.926L1.372 3.971V4.105L1.375 4.149L1.377 4.193L1.381 4.237L1.385 4.281L1.39 4.325L1.395 4.368L1.401 4.411L1.409 4.455L1.416 4.498L1.425 4.541L1.434 4.584L1.444 4.627L1.454 4.67L1.466 4.712L1.479 4.755L1.492 4.797L1.505 4.839L1.52 4.881L1.535 4.924L1.551 4.966L1.568 5.008L1.585 5.049L1.603 5.092L1.623 5.133L1.642 5.175L1.662 5.216L1.683 5.258L1.705 5.299L1.728 5.34L1.752 5.38L1.802 5.462L1.853 5.54L1.907 5.616L1.962 5.69L2.019 5.761L2.077 5.83L2.139 5.896L2.202 5.96L2.267 6.023L2.334 6.083L2.404 6.14L2.474 6.196L2.548 6.249L2.624 6.3L2.701 6.35L2.782 6.397L2.822 6.419L2.862 6.44L2.903 6.46L2.944 6.481L2.985 6.501L3.027 6.52L3.068 6.538L3.11 6.555L3.152 6.572L3.194 6.588L3.236 6.603L3.278 6.618L3.321 6.631L3.364 6.644L3.406 6.657L3.45 6.669L3.493 6.679L3.536 6.69L3.58 6.7L3.624 6.708L3.668 6.717L3.712 6.724L3.757 6.73L3.801 6.736L3.846 6.742L3.891 6.746L3.936 6.75L3.982 6.753L4.028 6.755L4.074 6.757L4.119 6.758H4.259L4.306 6.755L4.352 6.753L4.398 6.75L4.444 6.746L4.49 6.741L4.535 6.736L4.581 6.73L4.626 6.723L4.671 6.716L4.716 6.708L4.762 6.698L4.806 6.689L4.851 6.679L4.895 6.669L4.94 6.656L4.984 6.644L5.027 6.631L5.071 6.617L5.115 6.603L5.159 6.588L5.202 6.572L5.245 6.555L5.289 6.538L5.331 6.52L5.374 6.501L5.417 6.481L5.46 6.461L5.502 6.441L5.544 6.419L5.585 6.397L5.669 6.351L5.749 6.302L5.827 6.252L5.902 6.201L5.974 6.148L6.044 6.092L6.112 6.034L6.177 5.974L6.239 5.914L6.299 5.85L6.356 5.785L6.412 5.718L6.464 5.648L6.514 5.578L6.563 5.503L6.609 5.426L6.631 5.388L6.653 5.35L6.673 5.311L6.693 5.272L6.713 5.232L6.732 5.192L6.749 5.152L6.767 5.112L6.783 5.072L6.799 5.03L6.813 4.99L6.828 4.948L6.841 4.906L6.854 4.864L6.867 4.821L6.878 4.778L6.888 4.734L6.898 4.691L6.908 4.647L6.918 4.603L6.926 4.558L6.933 4.513L6.939 4.468L6.945 4.423L6.951 4.376L6.955 4.33L6.959 4.284L6.962 4.236L6.964 4.189L6.966 4.141L6.967 4.093V3.971L6.965 3.898L6.961 3.826L6.955 3.755L6.948 3.685L6.939 3.615L6.929 3.545L6.917 3.478L6.904 3.411L6.889 3.345L6.873 3.28L6.854 3.215L6.834 3.152L6.814 3.089L6.791 3.027L6.767 2.965L6.741 2.905L6.713 2.845L6.684 2.787L6.654 2.729L6.622 2.671L6.588 2.614L6.553 2.558L6.516 2.502L6.477 2.448L6.437 2.394L6.397 2.34L6.353 2.288L6.308 2.236L6.261 2.185L6.213 2.135L6.163 2.085L6.112 2.035L6.06 1.988L6.008 1.943L5.955 1.899L5.901 1.857L5.847 1.816L5.791 1.776L5.736 1.739L5.679 1.703L5.622 1.669L5.565 1.635L5.505 1.604L5.446 1.574L5.386 1.546L5.326 1.519L5.264 1.493L5.202 1.47L5.139 1.448L5.076 1.427L5.011 1.407L4.946 1.39L4.879 1.374L4.812 1.359L4.744 1.346L4.676 1.334L4.606 1.324L4.536 1.316L4.465 1.309L4.393 1.304L4.32 1.299L4.246 1.297H4.172L4.175 1.292Z"
        fill="#BC3D19" />
</svg>