<svg width="24" height="24" viewBox="0 0 24 24" fill="none" xmlns="http://www.w3.org/2000/svg">
    <path d="M4.60488 20.0007L3 2H20.635L19.0284 19.9979L11.8067 22L4.60488 20.0007Z" fill="#264DE4" />
    <path d="M17.6529 18.8519L19.0258 3.4718H11.8174V20.4697L17.6529 18.8519Z" fill="#2965F1" />
    <path
        d="M6.67936 10.148L6.87721 12.3557H11.8176V10.148H6.67936ZM6.48244 7.8873H11.8176V5.67957H6.28174L6.48244 7.8873ZM11.8176 15.8817L11.8079 15.8843L9.3492 15.2204L9.19205 13.4596H6.9758L7.28514 16.926L11.8075 18.1815L11.8176 18.1787V15.8817Z"
        fill="#EBEBEB" />
    <path
        d="M11.8101 10.148V12.3557H14.5286L14.2724 15.219L11.8101 15.8836V18.1804L16.336 16.9261L16.3692 16.553L16.8879 10.7409L16.9419 10.148L17.3404 5.67957H11.8101V7.8873H14.921L14.72 10.148H11.8101Z"
        fill="white" />
</svg>