<svg width="24" height="24" viewBox="0 0 24 24" fill="none" xmlns="http://www.w3.org/2000/svg">
    <path
        d="M6.07884 17.921L2.65785 14.5C2.25266 14.0834 2 13.4954 2 12.921C2 12.6551 2.15027 12.2391 2.26307 11.9999L5.42099 5.42099L6.07884 17.921Z"
        fill="#01579B" />
    <path
        d="M17.7893 6.07884L14.3684 2.65785C14.0695 2.35788 13.4472 2 12.9209 2C12.4686 2 12.0246 2.09046 11.7367 2.26307L5.4209 5.42099L17.7893 6.07884Z"
        fill="#40C4FF" />
    <path d="M10.1577 21.9998H18.4471V18.4473L12.263 16.4735L6.60498 18.4473L10.1577 21.9998Z" fill="#40C4FF" />
    <path
        d="M5.4209 16.0787C5.4209 17.1342 5.55319 17.3931 6.07875 17.9208L6.60507 18.4471H18.4472L12.6577 11.8684L5.4209 5.42099V16.0787Z"
        fill="#29B6F6" />
    <path
        d="M15.9471 5.42099H5.4209L18.4472 18.4473H21.9997V10.2894L17.7893 6.07884C17.1979 5.48515 16.6727 5.42099 15.9471 5.42099Z"
        fill="#01579B" />
    <path opacity="0.2"
        d="M6.21029 18.0525C5.68397 17.5241 5.55244 17.0035 5.55244 16.0787V5.55252L5.4209 5.42099V16.0787C5.42071 17.0035 5.42071 17.2599 6.21029 18.0525Z"
        fill="white" />
    <path opacity="0.2" d="M21.868 10.1579V18.3158H18.3154L18.447 18.4473H21.9997V10.2894L21.868 10.1579Z"
        fill="#263238" />
    <path opacity="0.2"
        d="M17.7893 6.07884C17.1372 5.42667 16.6021 5.42099 15.8156 5.42099H5.4209L5.55243 5.55252H15.8156C16.2089 5.55252 17.1994 5.48685 17.7893 6.07884Z"
        fill="white" />
    <path opacity="0.2"
        d="M21.8683 10.1579L17.7894 6.07884L14.3684 2.65785C14.0696 2.35788 13.4473 2 12.921 2C12.4687 2 12.0247 2.09046 11.7368 2.26307L5.42099 5.42099L2.26307 11.9999C2.15027 12.2391 2 12.6549 2 12.921C2 13.4954 2.25266 14.0832 2.65785 14.5L5.81048 17.6299C5.88599 17.7219 5.97437 17.8161 6.07884 17.921L6.21038 18.0525L6.60516 18.4473L10.0262 21.8683L10.1577 21.9998H18.3156H18.4471V18.4473H21.9996V18.4378V10.2894L21.8683 10.1579Z"
        fill="url(#paint0_radial_30_13)" />
    <defs>
        <radialGradient id="paint0_radial_30_13" cx="0" cy="0" r="1" gradientUnits="userSpaceOnUse"
            gradientTransform="translate(12 11.9999) scale(9.99996)">
            <stop stop-color="white" stop-opacity="0.1" />
            <stop offset="1" stop-color="white" stop-opacity="0" />
        </radialGradient>
    </defs>
</svg>