<svg width="24" height="24" viewBox="0 0 24 24" fill="none" xmlns="http://www.w3.org/2000/svg">
    <mask id="mask0_30_120" style="mask-type:luminance" maskUnits="userSpaceOnUse" x="2" y="2" width="20" height="20">
        <path d="M2 2H22V22H2V2Z" fill="white" />
    </mask>
    <g mask="url(#mask0_30_120)">
        <path
            d="M21.6233 11.1094L12.8908 2.37763C12.7712 2.25793 12.6291 2.16298 12.4728 2.09819C12.3165 2.03341 12.1489 2.00006 11.9797 2.00006C11.8105 2.00006 11.6429 2.03341 11.4866 2.09819C11.3302 2.16298 11.1882 2.25793 11.0686 2.37763L9.2559 4.19116L11.5557 6.49094C11.8261 6.39912 12.1167 6.38478 12.3948 6.44956C12.673 6.51433 12.9274 6.65563 13.1294 6.85748C13.3325 7.06079 13.4742 7.31716 13.5385 7.59726C13.6027 7.87736 13.5868 8.16989 13.4926 8.44138L15.7099 10.658C15.9815 10.5637 16.2741 10.5478 16.5543 10.6122C16.8345 10.6765 17.0909 10.8186 17.294 11.0219C17.4364 11.1642 17.5493 11.3332 17.6263 11.5191C17.7033 11.705 17.7429 11.9043 17.7429 12.1056C17.7429 12.3068 17.7033 12.5061 17.6263 12.692C17.5493 12.8779 17.4364 13.0469 17.294 13.1892C17.0063 13.4766 16.6162 13.638 16.2096 13.638C15.8029 13.638 15.4128 13.4766 15.1251 13.1892C14.9113 12.9751 14.7657 12.7025 14.7065 12.4059C14.6473 12.1092 14.6772 11.8016 14.7925 11.5219L12.7247 9.4548V14.8956C12.943 15.0034 13.1324 15.1617 13.2773 15.3573C13.4222 15.5529 13.5184 15.7802 13.558 16.0204C13.5976 16.2606 13.5794 16.5067 13.5049 16.7385C13.4304 16.9702 13.3017 17.1809 13.1296 17.353C12.9873 17.4953 12.8183 17.6082 12.6324 17.6852C12.4465 17.7622 12.2472 17.8019 12.046 17.8019C11.8447 17.8019 11.6454 17.7622 11.4595 17.6852C11.2736 17.6082 11.1046 17.4953 10.9623 17.353C10.82 17.2107 10.7071 17.0417 10.63 16.8558C10.553 16.6698 10.5133 16.4705 10.5133 16.2693C10.5133 16.068 10.553 15.8687 10.63 15.6827C10.7071 15.4968 10.82 15.3278 10.9623 15.1855C11.1057 15.0418 11.2762 14.928 11.4638 14.8506V9.35968C11.277 9.28271 11.1071 9.16957 10.9641 9.02677C10.8211 8.88396 10.7077 8.71431 10.6304 8.52755C10.5532 8.34079 10.5136 8.1406 10.5139 7.93849C10.5142 7.73638 10.5545 7.53633 10.6324 7.34982L8.36481 5.08182L2.37659 11.0685C2.13528 11.3103 1.99976 11.6379 1.99976 11.9795C1.99976 12.3211 2.13528 12.6488 2.37659 12.8905L11.1095 21.6234C11.3513 21.8647 11.6788 22.0002 12.0204 22.0002C12.3619 22.0002 12.6895 21.8647 12.9313 21.6234L21.6233 12.9315C21.8646 12.6897 22.0001 12.362 22.0001 12.0205C22.0001 11.6789 21.8646 11.3512 21.6233 11.1094Z"
            fill="#F03C2E" />
    </g>
</svg>