<svg width="26" height="26" viewBox="0 0 26 26" fill="none" xmlns="http://www.w3.org/2000/svg">
    <path
        d="M14.0895 12.3747C15.1156 13.5718 13.8045 14.6549 13.8045 14.6549C13.8045 14.6549 16.4837 13.2868 15.2296 11.5767C13.9755 9.86655 13.2344 9.18251 17.9658 6.44631C17.9658 6.38931 10.4982 8.27044 14.0895 12.3747ZM15.2296 2C15.2296 2 17.5097 4.28016 13.0634 7.7004C9.52916 10.4936 12.2654 12.0897 13.0634 13.9138C11.0113 12.0327 9.47216 10.4366 10.4982 8.89749C12.0373 6.61733 16.1416 5.53425 15.2296 2Z"
        fill="#F7901E" />
    <path
        d="M10.2132 18.7592C10.2132 18.7592 9.35814 19.2152 10.7832 19.3862C12.2083 19.5572 13.4054 19.5572 15.2866 19.2152C15.6687 19.4388 16.0692 19.6295 16.4836 19.7853C12.2653 21.6094 6.84996 19.7283 10.2132 18.7592ZM9.70016 16.365C9.70016 16.365 8.7881 17.0491 10.2132 17.2201C11.6383 17.3911 13.5194 17.4481 16.0276 16.9351C16.2879 17.1874 16.5988 17.3817 16.9397 17.5051C11.7523 18.9872 5.9949 17.6191 9.70016 16.365ZM19.6759 20.5263C19.6759 20.5263 20.3029 21.0394 18.9918 21.4384C16.5406 22.1794 8.7881 22.4074 6.62194 21.4954C5.82389 21.1534 7.477 20.5263 8.50308 20.5263C7.53401 19.9563 2.91668 21.7234 6.10891 22.2364C14.8305 23.6045 21.956 21.5524 19.6759 20.5263ZM10.6122 13.9139C10.6122 13.9139 6.67895 14.8259 9.18712 15.1679C10.2702 15.339 12.4364 15.2819 14.4315 15.1109C16.4266 14.9399 17.6807 14.6549 17.6807 14.6549C17.3447 14.8001 17.0207 14.9717 16.7117 15.1679C12.7214 16.194 4.96883 15.738 7.19198 14.6549C9.41514 13.5718 10.6122 13.9139 10.6122 13.9139ZM17.6807 17.8471C21.842 15.738 19.9039 13.2868 18.0798 14.0849C20.1319 12.3747 23.8372 16.137 17.5667 17.9611V17.8471M11.0113 23.6045C14.9445 23.8325 20.93 23.4905 21.044 21.6094C21.044 21.6094 20.7589 22.2934 17.7947 22.8635C14.8305 23.4335 10.3272 23.4335 7.87603 23.0345C7.93304 23.0345 8.44607 23.4335 11.0113 23.6045Z"
        fill="#007699" />
</svg>