<svg width="24" height="24" viewBox="0 0 24 24" fill="none" xmlns="http://www.w3.org/2000/svg">
    <g clip-path="url(#clip0_30_200)">
        <path d="M15.2954 10.0017H18.7791V10.6447H17.3971V14.0274H16.7061V10.6447H15.2954V10.0017Z" fill="black" />
        <path
            d="M9.56616 10.0017V10.6447H6.77378V11.6791H9.01941V12.3221H6.77378V13.3844H9.56616V14.0274H6.08281V10.6447H6.08252V10.0017H9.56616Z"
            fill="black" />
        <path
            d="M11.3056 10.0034H10.4014L13.6403 14.029H14.5472L12.9275 12.0176L14.5446 10.0064L13.6403 10.0078L12.4748 11.4553L11.3056 10.0034Z"
            fill="black" />
        <path d="M12.2335 12.8789L11.7806 12.3159L10.3987 14.0321H11.3055L12.2335 12.8789Z" fill="black" />
        <path fill-rule="evenodd" clip-rule="evenodd"
            d="M6.10695 14.0274L2.86371 10H2V14.0257H2.69097V10.8605L5.23892 14.0274H6.10695Z" fill="black" />
        <path
            d="M18.9343 14.0028C18.8837 14.0028 18.8407 13.9853 18.8046 13.9502C18.7686 13.9151 18.7508 13.8727 18.7512 13.8224C18.7508 13.7735 18.7686 13.7315 18.8046 13.6965C18.8407 13.6614 18.8837 13.6439 18.9343 13.6439C18.983 13.6439 19.0256 13.6614 19.0616 13.6965C19.0982 13.7315 19.1164 13.7735 19.1169 13.8224C19.1164 13.8556 19.108 13.8861 19.0911 13.9133C19.0738 13.941 19.0518 13.9627 19.0242 13.9783C18.997 13.9945 18.9671 14.0028 18.9343 14.0028Z"
            fill="black" />
        <path
            d="M20.1136 12.3069H20.4198V13.4865C20.4194 13.595 20.3959 13.6877 20.3501 13.7657C20.3037 13.8436 20.2396 13.9031 20.1572 13.9451C20.0753 13.9866 19.9793 14.0079 19.8702 14.0079C19.7704 14.0079 19.6811 13.9899 19.6015 13.9548C19.5219 13.9197 19.4587 13.8672 19.4123 13.798C19.3655 13.7287 19.3425 13.6425 19.3425 13.5391H19.6492C19.6497 13.5844 19.66 13.6236 19.6796 13.6563C19.6993 13.6891 19.7264 13.714 19.7611 13.7315C19.7962 13.749 19.8365 13.7578 19.8819 13.7578C19.9311 13.7578 19.9732 13.7477 20.0074 13.7269C20.0415 13.7066 20.0678 13.6762 20.086 13.6356C20.1038 13.5954 20.1132 13.5456 20.1136 13.4865V12.3069Z"
            fill="black" />
        <path
            d="M21.6798 12.7682C21.6723 12.6967 21.6396 12.6409 21.5824 12.6012C21.5248 12.561 21.4504 12.5412 21.3591 12.5412C21.295 12.5412 21.2398 12.5509 21.1939 12.5698C21.148 12.5892 21.1124 12.615 21.088 12.6478C21.0637 12.6805 21.0515 12.7179 21.0506 12.7599C21.0506 12.795 21.059 12.8254 21.0754 12.8508C21.0918 12.8766 21.1138 12.8983 21.1423 12.9158C21.1704 12.9338 21.2018 12.9486 21.236 12.9606C21.2706 12.9726 21.3053 12.9827 21.3399 12.991L21.4996 13.0302C21.5637 13.045 21.626 13.0648 21.6854 13.0902C21.7449 13.1151 21.7987 13.147 21.846 13.1852C21.8933 13.2235 21.9308 13.2697 21.9584 13.3237C21.986 13.3776 22.0001 13.4408 22.0001 13.5137C22.0001 13.612 21.9748 13.6983 21.9237 13.773C21.8727 13.8473 21.7992 13.9054 21.7028 13.9474C21.6068 13.9889 21.4907 14.0101 21.354 14.0101C21.2219 14.0101 21.1068 13.9898 21.0099 13.9492C20.9125 13.9091 20.8366 13.85 20.7818 13.7725C20.7271 13.695 20.6976 13.6005 20.6934 13.4893H20.9968C21.001 13.5474 21.0197 13.5958 21.0515 13.6351C21.0838 13.6738 21.1259 13.7024 21.1775 13.7218C21.2295 13.7407 21.2875 13.7504 21.3516 13.7504C21.4186 13.7504 21.4776 13.7402 21.5286 13.7204C21.5791 13.7006 21.6189 13.6729 21.6475 13.6369C21.6766 13.6014 21.6911 13.5594 21.6915 13.5114C21.6911 13.4676 21.6779 13.4311 21.6526 13.4025C21.6269 13.3739 21.5913 13.3499 21.5459 13.3306C21.5001 13.3112 21.4467 13.2937 21.3858 13.2784L21.192 13.2295C21.052 13.194 20.941 13.14 20.86 13.0676C20.7786 12.9952 20.7383 12.8992 20.7383 12.7788C20.7383 12.6801 20.7654 12.5933 20.8203 12.5191C20.8745 12.4448 20.949 12.3871 21.0431 12.3461C21.1377 12.3045 21.2444 12.2842 21.3633 12.2842C21.4841 12.2842 21.5899 12.3045 21.6812 12.3461C21.7725 12.3871 21.8442 12.4443 21.8961 12.5172C21.9481 12.5901 21.9752 12.6736 21.9767 12.7682H21.6798Z"
            fill="black" />
    </g>
    <defs>
        <clipPath id="clip0_30_200">
            <rect width="20" height="4.01015" fill="white" transform="translate(2 10)" />
        </clipPath>
    </defs>
</svg>