<svg width="800" height="800" viewBox="0 0 800 800" fill="none" xmlns="http://www.w3.org/2000/svg">
    <path
        d="M166 134.825V665.175C166.004 666.325 166.345 667.449 166.983 668.406C167.62 669.362 168.525 670.108 169.583 670.551C170.641 670.993 171.805 671.112 172.931 670.893C174.056 670.673 175.092 670.126 175.908 669.318L451 400.013L175.908 130.682C175.092 129.874 174.056 129.327 172.931 129.107C171.805 128.888 170.641 129.007 169.583 129.449C168.525 129.892 167.62 130.638 166.983 131.594C166.345 132.551 166.004 133.675 166 134.825Z"
        fill="black" />
    <path
        d="M567 289.768L220.813 98.8683L220.597 98.7468C214.634 95.5057 208.967 103.581 213.851 108.281L485.223 368L567 289.768Z"
        fill="black" />
    <path
        d="M213.867 691.72C208.955 696.419 214.622 704.494 220.613 701.253L220.829 701.132L567 510.251L485.22 432L213.867 691.72Z"
        fill="black" />
    <path
        d="M706.305 366.271L609.769 313L519 400.02L609.769 487L706.305 433.77C732.565 419.231 732.565 380.81 706.305 366.271Z"
        fill="black" />
</svg>