<svg width="24" height="24" viewBox="0 0 24 24" fill="none" xmlns="http://www.w3.org/2000/svg">
    <path
        d="M12.1657 13.8331C13.1781 13.8331 13.9988 13.0124 13.9988 12C13.9988 10.9876 13.1781 10.1669 12.1657 10.1669C11.1532 10.1669 10.3325 10.9876 10.3325 12C10.3325 13.0124 11.1532 13.8331 12.1657 13.8331Z"
        fill="#169DC9" />
    <path
        d="M12.1657 16.1246C17.2278 16.1246 21.3314 14.278 21.3314 12C21.3314 9.72212 17.2278 7.87549 12.1657 7.87549C7.10362 7.87549 3 9.72212 3 12C3 14.278 7.10362 16.1246 12.1657 16.1246Z"
        stroke="#169DC9" />
    <path
        d="M8.59393 14.0623C11.125 18.4462 14.776 21.0767 16.7487 19.9377C18.7215 18.7988 18.2689 14.3216 15.7379 9.93772C13.2068 5.55384 9.5558 2.92331 7.58306 4.06228C5.61031 5.20125 6.06289 9.6784 8.59393 14.0623Z"
        stroke="#169DC9" />
    <path
        d="M8.59376 9.93773C6.06273 14.3216 5.61015 18.7988 7.58289 19.9377C9.55564 21.0767 13.2067 18.4462 15.7377 14.0623C18.2687 9.67841 18.7213 5.20126 16.7486 4.06229C14.7758 2.92333 11.1248 5.55385 8.59376 9.93773Z"
        stroke="#169DC9" />
</svg>