<svg width="24" height="24" viewBox="0 0 24 24" fill="none" xmlns="http://www.w3.org/2000/svg">
    <path
        d="M8.92287 2.00006H15.0678L8.68901 21.3187C8.62344 21.5173 8.49858 21.6898 8.33203 21.812C8.16547 21.9343 7.96561 22 7.76058 22H2.97838C2.82305 22 2.66995 21.9622 2.53174 21.8897C2.39354 21.8173 2.2742 21.7122 2.18361 21.5832C2.09302 21.4543 2.03378 21.3051 2.01078 21.1481C1.98778 20.9911 2.0017 20.8307 2.05137 20.6803L7.99444 2.68134C8.06 2.48277 8.18485 2.31022 8.3514 2.188C8.51796 2.06578 8.71783 2.00005 8.92287 2.00006Z"
        fill="url(#paint0_linear_30_206)" />
    <path
        d="M17.8521 14.9577H8.1077C8.01713 14.9577 7.92866 14.9855 7.85379 15.0376C7.77892 15.0897 7.72112 15.1636 7.68791 15.2497C7.6547 15.3359 7.64763 15.4302 7.6676 15.5205C7.68758 15.6108 7.73368 15.6929 7.79991 15.756L14.0615 21.7294C14.2438 21.9032 14.4838 22 14.7331 22H20.2505L17.8521 14.9577Z"
        fill="#0078D4" />
    <path
        d="M8.92275 2.00001C8.71551 1.99922 8.51344 2.06617 8.34606 2.19108C8.17868 2.316 8.05475 2.49234 7.99237 2.69435L2.05862 20.6639C2.00563 20.8149 1.98899 20.9767 2.01011 21.1356C2.03124 21.2946 2.08951 21.446 2.17999 21.577C2.27047 21.7081 2.3905 21.8149 2.52993 21.8886C2.66936 21.9622 2.82409 22.0004 2.98102 21.9999H7.88667C8.06943 21.9666 8.24025 21.8842 8.38166 21.7613C8.52308 21.6383 8.63002 21.4792 8.69156 21.3002L9.87461 17.7359L14.1014 21.7654C14.2785 21.9151 14.5007 21.998 14.7306 21.9999H20.2276L17.8165 14.9577L10.7883 14.9593L15.0901 2.00001H8.92275Z"
        fill="url(#paint1_linear_30_206)" />
    <path
        d="M16.0053 2.68019C15.9399 2.48194 15.8152 2.30968 15.6489 2.18766C15.4826 2.06564 15.2831 2 15.0784 2H8.22998C8.43469 2 8.63425 2.06563 8.80055 2.18765C8.96685 2.30967 9.09151 2.48194 9.15699 2.68019L15.1004 20.6801C15.1501 20.8305 15.164 20.9909 15.141 21.1479C15.118 21.305 15.0588 21.4541 14.9682 21.5831C14.8776 21.7121 14.7582 21.8172 14.62 21.8896C14.4818 21.9621 14.3287 21.9999 14.1734 21.9999H21.0218C21.1771 21.9999 21.3302 21.9621 21.4684 21.8896C21.6066 21.8171 21.7259 21.712 21.8165 21.5831C21.9071 21.4541 21.9663 21.3049 21.9893 21.1479C22.0123 20.9909 21.9984 20.8305 21.9487 20.6801L16.0053 2.68019Z"
        fill="url(#paint2_linear_30_206)" />
    <defs>
        <linearGradient id="paint0_linear_30_206" x1="11.1626" y1="3.48209" x2="4.52584" y2="22.6641"
            gradientUnits="userSpaceOnUse">
            <stop stop-color="#114A8B" />
            <stop offset="1" stop-color="#0669BC" />
        </linearGradient>
        <linearGradient id="paint1_linear_30_206" x1="13.156" y1="12.4624" x2="11.6732" y2="12.9529"
            gradientUnits="userSpaceOnUse">
            <stop stop-opacity="0.3" />
            <stop offset="0.071" stop-opacity="0.2" />
            <stop offset="0.321" stop-opacity="0.1" />
            <stop offset="0.623" stop-opacity="0.05" />
            <stop offset="1" stop-opacity="0" />
        </linearGradient>
        <linearGradient id="paint2_linear_30_206" x1="11.578" y1="2.91986" x2="18.8564" y2="21.8913"
            gradientUnits="userSpaceOnUse">
            <stop stop-color="#3CCBF4" />
            <stop offset="1" stop-color="#2892DF" />
        </linearGradient>
    </defs>
</svg>