<svg width="24" height="24" viewBox="0 0 24 24" fill="none" xmlns="http://www.w3.org/2000/svg">
<path d="M2.41811 13.0094C1.86063 12.4519 1.86063 11.5481 2.41811 10.9906L10.9906 2.41811C11.5481 1.86063 12.4519 1.86063 13.0094 2.41811L21.5819 10.9906C22.1394 11.5481 22.1394 12.4519 21.5819 13.0094L13.0094 21.5819C12.4519 22.1394 11.5481 22.1394 10.9906 21.5819L2.41811 13.0094Z" fill="#EE513B"/>
<path d="M9.24918 4.18677L8.3811 5.05487L10.6232 7.29695C10.5325 7.49153 10.4818 7.70855 10.4818 7.9374C10.4818 8.58711 10.89 9.14147 11.464 9.35797V14.8427C10.89 15.0592 10.4818 15.6135 10.4818 16.2633C10.4818 17.1016 11.1614 17.7811 11.9997 17.7811C12.838 17.7811 13.5175 17.1016 13.5175 16.2633C13.5175 15.6743 13.182 15.1635 12.6917 14.912V9.36547L14.8349 11.5087C14.7486 11.6993 14.7006 11.911 14.7006 12.1338C14.7006 12.9721 15.3802 13.6517 16.2185 13.6517C17.0568 13.6517 17.7363 12.9721 17.7363 12.1338C17.7363 11.2955 17.0568 10.616 16.2185 10.616C16.0555 10.616 15.8987 10.6416 15.7515 10.6891L13.4498 8.38733C13.4938 8.24519 13.5175 8.09404 13.5175 7.9374C13.5175 7.0991 12.838 6.41953 11.9997 6.41953C11.843 6.41953 11.692 6.44326 11.5497 6.48733L9.24918 4.18677Z" fill="white"/>
</svg>
