<svg width="24" height="24" viewBox="0 0 24 24" fill="none" xmlns="http://www.w3.org/2000/svg">
    <path d="M4.60156 19.9688L3 2H20.6172L19.0156 19.9688L11.7891 22" fill="#E34F26" />
    <path d="M11.8281 20.4375L17.6484 18.8359L19.0156 3.44531H11.8281" fill="#EF652A" />
    <path
        d="M11.8281 10.125H8.89844L8.70312 7.85938H11.8281V5.67188H11.7891H6.28125L6.32031 6.25781L6.86719 12.3516H11.8281V10.125ZM11.8281 15.8672H11.7891L9.32812 15.2031L9.17188 13.4453H8H6.98438L7.25781 16.9219L11.7891 18.1719H11.8281V15.8672Z"
        fill="#EBEBEB" />
    <path
        d="M11.7891 10.125V12.3516H14.5234L14.25 15.2031L11.7891 15.8672V18.1719L16.3203 16.9219L16.3594 16.5312L16.8672 10.7109L16.9453 10.125H16.3203H11.7891ZM11.7891 5.67188V7.03906V7.85938H17.1406L17.1797 7.39062L17.2969 6.25781L17.3359 5.67188H11.7891Z"
        fill="white" />
</svg>