<svg width="24" height="24" viewBox="0 0 24 24" fill="none" xmlns="http://www.w3.org/2000/svg">
    <g clip-path="url(#clip0_30_150)">
        <path
            d="M19 2H5C3.34315 2 2 3.34315 2 5V19C2 20.6569 3.34315 22 5 22H19C20.6569 22 22 20.6569 22 19V5C22 3.34315 20.6569 2 19 2Z"
            fill="#EFDB50" />
        <path
            d="M14.6562 16.4531C15.0469 17.1172 15.5938 17.5859 16.4922 17.5859C17.2734 17.5859 17.7812 17.1953 17.7812 16.6484C17.7812 16.0234 17.2734 15.7891 16.4141 15.3984L15.9453 15.2031C14.5781 14.6172 13.6797 13.9141 13.6797 12.3906C13.6797 10.9844 14.7344 9.89062 16.4141 9.89062C17.625 9.89062 18.4844 10.3203 19.0703 11.4141L17.625 12.3516C17.3125 11.7656 16.9609 11.5312 16.4141 11.5312C15.8672 11.5312 15.5156 11.8828 15.5156 12.3516C15.5156 12.8984 15.8672 13.1328 16.6875 13.4844L17.1562 13.6797C18.7578 14.3828 19.6562 15.0469 19.6562 16.6484C19.6562 18.3281 18.3281 19.2656 16.5312 19.2656C14.7734 19.2656 13.6406 18.4453 13.0938 17.3516L14.6562 16.4531ZM8.01562 16.6094C8.32812 17.1172 8.5625 17.5859 9.22656 17.5859C9.85156 17.5859 10.2422 17.3516 10.2422 16.4141V9.92969H12.1172V16.3359C12.1172 18.2891 10.9844 19.1484 9.30469 19.1484C7.78125 19.1484 6.92188 18.3672 6.49219 17.4297L8.01562 16.6094Z"
            fill="#323330" />
    </g>
    <defs>
        <clipPath id="clip0_30_150">
            <rect width="20" height="20" fill="white" transform="translate(2 2)" />
        </clipPath>
    </defs>
</svg>