<svg width="24" height="24" viewBox="0 0 24 24" fill="none" xmlns="http://www.w3.org/2000/svg">
<path d="M13.2 19H20.6C20.8361 19 21.0622 18.9129 21.2667 18.79C21.4712 18.6671 21.682 18.5128 21.8 18.3C21.918 18.0871 22.0001 17.8456 22 17.5999C21.9999 17.3542 21.9182 17.1128 21.8 16.9001L16.8 7.87001C16.682 7.65719 16.5378 7.50286 16.3333 7.37998C16.1289 7.25715 15.8361 7.16998 15.6 7.16998C15.3639 7.16998 15.1378 7.25715 14.9333 7.37998C14.7289 7.50286 14.5847 7.65719 14.4667 7.87001L13.2 10.18L10.6667 5.69983C10.5485 5.48706 10.4045 5.26285 10.2 5.14002C9.99547 5.01714 9.76948 5 9.53335 5C9.29722 5 9.07118 5.01714 8.86665 5.14002C8.66217 5.26285 8.45146 5.48706 8.33335 5.69983L2.13334 16.9001C2.01513 17.1128 2.0001 17.3542 2 17.5999C1.9999 17.8456 2.01531 18.0871 2.13334 18.3C2.25136 18.5128 2.46217 18.6671 2.66667 18.79C2.87117 18.9129 3.09718 19 3.33334 19H8C9.8491 19 11.195 18.129 12.1333 16.48L14.4 12.35L15.6 10.18L19.2667 16.76H14.4L13.2 19ZM7.93335 16.76H4.66665L9.53335 7.94L12 12.35L10.3661 15.3407C9.74297 16.4107 9.0325 16.76 7.93335 16.76Z" fill="#00DC82"/>
</svg>
