<svg width="613" height="169" viewBox="0 0 613 169" fill="none" xmlns="http://www.w3.org/2000/svg">
    <path d="M315.14 52.24H328.01V29.28H337.14V20H306.01V29.28H315.14V52.24Z" fill="#007DC5" />
    <path d="M346.63 52.24L353.19 32.96L359.74 52.24H372.33L359.99 20H346.38L334.05 52.24H346.63Z" fill="#007DC5" />
    <path d="M378.37 52.24H391.24V29.28H400.37V20H369.24V29.28H378.37V52.24Z" fill="#007DC5" />
    <path d="M409.86 52.24L416.42 32.96L422.97 52.24H435.56L423.23 20H409.61L397.28 52.24H409.86Z" fill="#007DC5" />
    <path
        d="M533.37 75.29C534.96 78.94 537.06 82.89 539.15 86.41L547.57 100.59H553.67V68.35H548.22V79.6C548.22 84.53 548.33 88.68 548.75 92.96L548.64 92.99C547.15 89.49 545.28 85.74 543.15 82.19L534.82 68.35H528.09V100.59H533.53V89.06C533.53 83.77 533.45 79.51 533.22 75.32L533.37 75.29Z"
        fill="#007DC5" />
    <path
        d="M504.14 91.48H514.38L517.3 100.59H523.62L513.15 68.35H505.66L495.31 100.59H501.4L504.14 91.48ZM507.59 79.07C508.16 77.15 508.65 74.92 509.12 73.03H509.22C509.71 74.9 510.24 77.1 510.85 79.09L513.39 87.04H505.08L507.59 79.07Z"
        fill="#007DC5" />
    <path
        d="M408.16 96.22C405.16 96.22 402.27 95.26 400.37 94.16L399.06 99.04C400.82 100.12 404.36 101.1 407.77 101.1C416.09 101.1 420 96.6 420 91.41C420 86.78 417.31 83.96 411.71 81.83C407.41 80.19 405.54 79.02 405.54 76.55C405.54 74.65 407.13 72.67 410.87 72.67C413.9 72.67 416.15 73.59 417.31 74.2L418.72 69.45C417.04 68.6 414.48 67.86 410.99 67.86C404 67.86 399.58 71.84 399.58 77.12C399.58 81.74 402.98 84.6 408.31 86.49C412.38 87.97 414.02 89.41 414.02 91.84C414.02 94.46 411.91 96.22 408.16 96.22Z"
        fill="#007DC5" />
    <path
        d="M323.52 72.71C326.15 72.71 328.3 73.29 329.8 73.97L331.08 69.28C329.88 68.63 327.15 67.85 323.27 67.85C313.42 67.85 306.01 74.25 306.01 84.85C306.01 94.66 312.24 101.1 322.47 101.1C326.37 101.1 329.44 100.33 330.83 99.63L329.86 94.99C328.31 95.69 325.82 96.16 323.43 96.16C316.34 96.16 312.21 91.66 312.21 84.55C312.21 76.81 316.94 72.71 323.52 72.71Z"
        fill="#007DC5" />
    <path d="M488.13 100.59V73.3H497.42V68.35H473.03V73.3H482.24V100.59H488.13Z" fill="#007DC5" />
    <path
        d="M605.83 68.35L601.95 76.61C600.85 78.95 599.96 80.95 599.16 83.01H599.06C598.18 80.83 597.34 78.99 596.25 76.62L592.41 68.35H585.67L595.87 87.17V100.59H601.76V87.01L612.47 68.36H605.83V68.35Z"
        fill="#007DC5" />
    <path
        d="M348.15 67.83C339.05 67.83 332.8 74.82 332.8 84.72C332.8 94.16 338.56 101.13 347.68 101.13H347.73C356.56 101.13 363.11 94.9499 363.11 84.1499C363.09 74.9299 357.55 67.83 348.15 67.83ZM347.92 96.4099H347.87C342.24 96.4099 338.95 90.99 338.97 84.58C338.96 78.15 342.06 72.5399 347.94 72.5399C353.82 72.5399 356.84 78.2899 356.84 84.3699C356.83 91.1099 353.61 96.4099 347.92 96.4099Z"
        fill="#007DC5" />
    <path
        d="M576.25 72.71C578.88 72.71 581.03 73.29 582.53 73.97L583.81 69.28C582.61 68.63 579.88 67.85 576 67.85C566.15 67.85 558.74 74.25 558.74 84.85C558.74 94.66 564.97 101.1 575.2 101.1C579.1 101.1 582.17 100.34 583.56 99.63L582.59 94.99C581.04 95.69 578.55 96.16 576.16 96.16C569.07 96.16 564.94 91.66 564.94 84.55C564.94 76.81 569.67 72.71 576.25 72.71Z"
        fill="#007DC5" />
    <path d="M463.04 68.35H457.15V100.59H476.3V95.65H463.04V68.35Z" fill="#007DC5" />
    <path
        d="M450.45 86.77V68.36H444.56V87.16C444.56 93.48 442.01 96.39 437.77 96.39C433.78 96.39 431.16 93.46 431.16 87.16V68.36H425.27V86.81C425.27 96.95 430.12 101.14 437.55 101.14C445.34 101.13 450.45 96.7 450.45 86.77Z"
        fill="#007DC5" />
    <path
        d="M393.72 68.35H388.27V79.6C388.27 84.53 388.38 88.68 388.8 92.96L388.69 92.99C387.2 89.49 385.33 85.74 383.2 82.19L374.87 68.35H368.14V100.59H373.59V89.06C373.59 83.77 373.51 79.51 373.28 75.33L373.43 75.3C375.02 78.95 377.12 82.9 379.21 86.42L387.63 100.6H393.73V68.35H393.72Z"
        fill="#007DC5" />
    <path d="M418.92 116.71H413.03V148.95H418.92V116.71Z" fill="#007DC5" />
    <path
        d="M372.54 133.83V133.7C375.55 132.63 378.35 129.83 378.35 125.71C378.35 122.97 377.35 120.75 375.6 119.29C373.44 117.49 369.72 116.71 365.73 116.71C361.74 116.71 359.1 116.99 356.87 117.4V148.95H362.67V135.8H365.61C368.93 135.88 370.45 137.23 371.37 141.4C372.26 145.38 373.03 148.02 373.52 148.95H379.52C378.88 147.7 378.01 144.03 377 140.03C376.2 136.92 374.86 134.71 372.54 133.83ZM366.13 131.51H362.67V121.4C363.26 121.25 364.45 121.11 366.3 121.11C370.08 121.12 372.53 122.75 372.53 126.24C372.53 129.42 370.09 131.51 366.13 131.51Z"
        fill="#007DC5" />
    <path
        d="M398.59 131.45C397.34 135.36 396.17 139.3 395.31 143.1H395.21C394.37 139.2 393.27 135.43 392.05 131.36L387.65 116.7H381.23L391.66 148.94H398.41L409.55 116.7H403.28L398.59 131.45Z"
        fill="#007DC5" />
    <path d="M459.67 134.64H471.82V129.84H459.67V121.55H472.54V116.71H453.78V148.94H473.25V144.1H459.67V134.64Z"
        fill="#007DC5" />
    <path
        d="M441.49 121.06C444.12 121.06 446.27 121.64 447.77 122.32L449.05 117.63C447.85 116.98 445.12 116.2 441.24 116.2C431.39 116.2 423.98 122.6 423.98 133.2C423.98 143.01 430.21 149.45 440.44 149.45C444.34 149.45 447.41 148.69 448.8 147.98L447.83 143.34C446.27 144.04 443.79 144.51 441.4 144.51C434.31 144.51 430.18 140.01 430.18 132.9C430.18 125.16 434.91 121.06 441.49 121.06Z"
        fill="#007DC5" />
    <path
        d="M318.66 130.18C314.35 128.54 312.49 127.37 312.49 124.9C312.49 123 314.08 121.02 317.81 121.02C320.84 121.02 323.09 121.94 324.25 122.55L325.66 117.8C323.98 116.95 321.42 116.21 317.93 116.21C310.94 116.21 306.52 120.19 306.52 125.47C306.52 130.09 309.92 132.95 315.25 134.84C319.32 136.32 320.96 137.76 320.96 140.19C320.96 142.83 318.86 144.59 315.1 144.59C312.1 144.59 309.21 143.63 307.31 142.53L306 147.41C307.76 148.49 311.3 149.47 314.71 149.47C323.03 149.47 326.94 144.97 326.94 139.78C326.95 135.13 324.26 132.31 318.66 130.18Z"
        fill="#007DC5" />
    <path d="M338.13 134.64H350.28V129.84H338.13V121.55H351.01V116.71H332.24V148.94H351.72V144.1H338.13V134.64Z"
        fill="#007DC5" />
    <path
        d="M489.65 130.18C485.35 128.54 483.48 127.37 483.48 124.9C483.48 123 485.07 121.02 488.8 121.02C491.83 121.02 494.08 121.94 495.24 122.55L496.65 117.8C494.97 116.95 492.41 116.21 488.92 116.21C481.93 116.21 477.51 120.19 477.51 125.47C477.51 130.09 480.91 132.95 486.24 134.84C490.31 136.32 491.95 137.76 491.95 140.19C491.95 142.83 489.85 144.59 486.09 144.59C483.09 144.59 480.2 143.63 478.3 142.53L476.99 147.41C478.75 148.49 482.29 149.47 485.7 149.47C494.02 149.47 497.93 144.97 497.93 139.78C497.94 135.13 495.25 132.31 489.65 130.18Z"
        fill="#007DC5" />
    <path
        d="M0.77002 60.82C0.77002 46.22 10.26 37.46 24.13 37.46V12.64C24.13 5.33997 19.26 0.469971 12.45 0.469971C5.64002 0.469971 0.77002 5.33997 0.77002 12.64V60.82Z"
        fill="url(#paint0_linear_20_55)" />
    <path
        d="M42.14 168.61C47.98 168.61 53.33 167.64 58.2 165.93C33.62 170.07 24.13 153.28 24.13 134.3V56.44H52.6C59.17 56.44 63.55 52.55 63.55 46.95C63.55 41.35 59.17 37.46 52.6 37.46H24.13C10.26 37.46 0.77002 46.22 0.77002 60.82V127.73C0.77002 154.5 16.1 168.61 42.14 168.61Z"
        fill="url(#paint1_linear_20_55)" />
    <path
        d="M58.2 165.93C67.93 162.28 75.48 155.47 80.34 145.49L69.39 125.78C64.52 140.38 56.01 148.17 44.33 148.17C32.16 148.17 24.13 141.11 24.13 125.05V134.3C24.13 153.28 33.62 170.07 58.2 165.93Z"
        fill="url(#paint2_linear_20_55)" />
    <path
        d="M158.2 162.04C102.72 170.31 85.2001 140.63 85.2001 102.43C85.2001 74.69 102.23 55.71 126.81 55.71C135.81 55.71 143.36 57.66 150.17 60.82C153.33 62.28 156.01 62.77 158.44 62.77C164.28 62.77 168.17 58.88 168.17 53.04C168.17 49.39 165.98 45.74 160.87 43.31C151.62 38.69 139.7 36.01 126.8 36.01C88.3501 36.01 61.8301 63.26 61.8301 102.92C61.8301 141.85 87.3801 168.86 128.5 168.86C139.71 168.85 149.44 166.66 158.2 162.04Z"
        fill="url(#paint3_linear_20_55)" />
    <path
        d="M61.85 102.91C61.85 63.25 88.37 36 126.82 36C139.72 36 151.64 38.68 160.89 43.3C166 45.73 168.19 49.38 168.19 53.03C168.19 58.87 164.3 62.76 158.46 62.76C156.03 62.76 153.35 62.27 150.19 60.81C141.92 56.92 133.89 55.7 126.83 55.7C92.99 55.71 61.85 77.12 61.85 102.91Z"
        fill="url(#paint4_linear_20_55)" />
    <path
        d="M207.11 43.7899C204.92 45.9799 203.7 48.6599 203.7 51.8199C203.7 59.8499 211.24 71.7699 228.76 83.9399L248.71 97.8099C263.31 108.03 269.15 117.76 269.15 132.36C269.15 142.82 265.01 151.83 258.2 158.15C260.63 155.96 262.09 153.04 262.09 149.15C262.09 140.63 253.57 127.25 235.32 114.6L217.07 101.95C201.74 91.2399 195.66 81.2699 195.66 67.6399C195.66 59.6099 198.58 52.3099 203.45 46.9599C204.68 45.7299 205.89 44.7599 207.11 43.7899Z"
        fill="url(#paint5_linear_20_55)" />
    <path
        d="M191.3 153.04C191.3 156.93 193.25 160.1 198.36 162.53C205.42 165.94 216.85 168.86 227.07 168.86C239.97 168.86 250.67 164.97 258.22 158.15C260.65 155.96 262.11 153.04 262.11 149.15C262.11 140.63 253.59 127.25 235.34 114.6C243.61 120.44 247.02 125.31 247.02 132.36C247.02 142.82 238.75 149.88 226.82 149.88C215.38 149.88 205.65 144.04 200.3 144.04C194.95 144.04 191.3 147.69 191.3 153.04Z"
        fill="url(#paint6_linear_20_55)" />
    <path
        d="M228.77 83.94C220.98 78.34 217.58 73.23 217.58 67.15C217.58 59.36 223.91 54.5 232.91 54.5C244.35 54.5 249.7 59.85 256.51 59.85C261.86 59.85 265.51 56.2 265.51 50.85C265.51 46.96 263.56 43.79 258.45 41.36C250.42 37.47 241.66 36.01 232.17 36.01C222.19 36.01 213.43 38.93 207.11 43.8C204.92 45.99 203.7 48.67 203.7 51.83C203.7 59.85 211.25 71.77 228.77 83.94Z"
        fill="url(#paint7_linear_20_55)" />
    <path
        d="M85.21 102.43C85.21 140.63 102.73 170.32 158.21 162.04C175.97 152.79 188.63 134.06 197.38 105.35L202.49 88.56C197.62 82.23 195.68 75.18 195.68 67.63C195.68 59.6 198.6 52.3 203.47 46.95C196.17 54.74 190.09 66.17 185.22 82.2299L179.62 100.72C169.64 133.33 153.83 148.9 129.25 148.9C102.24 148.9 85.21 130.17 85.21 102.43Z"
        fill="url(#paint8_linear_20_55)" />
    <defs>
        <linearGradient id="paint0_linear_20_55" x1="12.4531" y1="6.89677" x2="12.4531" y2="55.0746"
            gradientUnits="userSpaceOnUse">
            <stop stop-color="#FFC708" />
            <stop offset="0.9997" stop-color="#F05731" />
            <stop offset="1" stop-color="#F05731" />
        </linearGradient>
        <linearGradient id="paint1_linear_20_55" x1="38.9352" y1="43.9182" x2="26.3363" y2="135.074"
            gradientUnits="userSpaceOnUse">
            <stop stop-color="#F80000" />
            <stop offset="1" stop-color="#EE3984" />
        </linearGradient>
        <linearGradient id="paint2_linear_20_55" x1="21.4423" y1="151.754" x2="87.4033" y2="130.824"
            gradientUnits="userSpaceOnUse">
            <stop stop-color="#EE3984" />
            <stop offset="0.9997" stop-color="#7800DA" />
            <stop offset="1" stop-color="#7800DA" />
        </linearGradient>
        <linearGradient id="paint3_linear_20_55" x1="111.106" y1="69.2115" x2="135.207" y2="154.2"
            gradientUnits="userSpaceOnUse">
            <stop stop-color="#FF0000" />
            <stop offset="0.9994" stop-color="#EE3984" />
            <stop offset="1" stop-color="#EE3984" />
        </linearGradient>
        <linearGradient id="paint4_linear_20_55" x1="61.8477" y1="69.4574" x2="168.18" y2="69.4574"
            gradientUnits="userSpaceOnUse">
            <stop stop-color="#FFC708" />
            <stop offset="1" stop-color="#FA3B00" />
        </linearGradient>
        <linearGradient id="paint5_linear_20_55" x1="195.675" y1="100.968" x2="269.159" y2="100.968"
            gradientUnits="userSpaceOnUse">
            <stop stop-color="#FF0000" />
            <stop offset="1" stop-color="#EE3984" />
        </linearGradient>
        <linearGradient id="paint6_linear_20_55" x1="254.951" y1="136.435" x2="190.258" y2="153.56"
            gradientUnits="userSpaceOnUse">
            <stop stop-color="#EE3984" />
            <stop offset="1" stop-color="#7800DA" />
        </linearGradient>
        <linearGradient id="paint7_linear_20_55" x1="203.705" y1="59.9679" x2="265.509" y2="59.9679"
            gradientUnits="userSpaceOnUse">
            <stop stop-color="#FFC708" />
            <stop offset="1" stop-color="#F05731" />
        </linearGradient>
        <linearGradient id="paint8_linear_20_55" x1="122.689" y1="138.979" x2="167.72" y2="65.4077"
            gradientUnits="userSpaceOnUse">
            <stop stop-color="#EE3984" />
            <stop offset="1" stop-color="#7800DA" />
        </linearGradient>
    </defs>
</svg>